<?xml version="1.0" encoding="UTF-8"?>
<svg id="Capa_1" data-name="Capa 1" xmlns="http://www.w3.org/2000/svg" viewBox="0 0 335.05 60">
  <defs>
    <style>
      .cls-1 {
        fill: #fff;
      }
    </style>
  </defs>
  <g>
    <g>
      <polygon class="cls-1" points="236.19 57.48 178.74 57.48 178.74 .02 227.14 .02 227.14 2.62 181.33 2.62 181.33 54.88 233.59 54.88 233.59 9.01 236.19 9.01 236.19 57.48"/>
      <g>
        <path class="cls-1" d="M184.47,43.17h3.91c.94,0,1.66.23,2.11.64.48.43.7.95.7,1.64,0,.89-.55,1.47-1.37,1.75v.04c.97.28,1.62,1.09,1.62,2.16,0,.82-.26,1.38-.77,1.82-.5.44-1.27.7-2.2.7h-4.01v-8.74ZM188.16,46.69c.77,0,1.29-.37,1.29-1.05,0-.65-.48-1.03-1.26-1.03h-1.95v2.08h1.92ZM186.24,50.44h2.04c.86,0,1.37-.48,1.37-1.19,0-.83-.61-1.26-1.42-1.26h-1.99v2.44Z"/>
        <path class="cls-1" d="M195.97,51.21h-.02c-.32.48-.77.84-1.84.84-1.28,0-2.19-.67-2.19-1.92,0-1.38,1.12-1.82,2.52-2.02,1.04-.15,1.52-.23,1.52-.71,0-.45-.35-.75-1.05-.75-.78,0-1.16.28-1.21.88h-1.48c.05-1.1.87-2.06,2.7-2.06s2.64.84,2.64,2.31v3.19c0,.48.07.76.22.87v.06h-1.6c-.1-.12-.16-.42-.2-.7ZM195.98,49.7v-.94c-.29.17-.75.27-1.16.37-.87.2-1.3.39-1.3.98s.39.79.98.79c.95,0,1.48-.59,1.48-1.2Z"/>
        <path class="cls-1" d="M198.49,43.17h1.66v8.74h-1.66v-8.74Z"/>
        <path class="cls-1" d="M200.8,48.77c0-1.86,1.26-3.3,3.09-3.3,2.02,0,3.09,1.54,3.09,3.77h-4.55c.12.97.66,1.56,1.6,1.56.65,0,1.03-.29,1.21-.77h1.64c-.23,1.11-1.22,2.05-2.83,2.05-2.08,0-3.25-1.45-3.25-3.32ZM202.46,48.1h2.79c-.05-.79-.57-1.34-1.33-1.34-.88,0-1.31.53-1.45,1.34Z"/>
        <path class="cls-1" d="M211.37,51.21h-.02c-.32.48-.77.84-1.84.84-1.28,0-2.19-.67-2.19-1.92,0-1.38,1.12-1.82,2.52-2.02,1.04-.15,1.52-.23,1.52-.71,0-.45-.35-.75-1.05-.75-.78,0-1.16.28-1.21.88h-1.48c.05-1.1.87-2.06,2.7-2.06s2.64.84,2.64,2.31v3.19c0,.48.07.76.22.87v.06h-1.6c-.1-.12-.16-.42-.2-.7ZM211.38,49.7v-.94c-.29.17-.75.27-1.16.37-.87.2-1.3.39-1.3.98s.39.79.98.79c.95,0,1.48-.59,1.48-1.2Z"/>
        <path class="cls-1" d="M215.46,46.64h.04c.38-.71.81-1.08,1.54-1.08.18,0,.29.01.39.05v1.45h-.04c-1.09-.11-1.87.46-1.87,1.78v3.05h-1.66v-6.27h1.6v1Z"/>
        <path class="cls-1" d="M217.61,49.88h1.54c.11.72.62,1.04,1.37,1.04s1.15-.28,1.15-.72c0-.6-.79-.66-1.65-.83-1.12-.22-2.22-.53-2.22-1.89s1.12-2,2.55-2c1.65,0,2.57.82,2.69,2.08h-1.5c-.07-.67-.5-.92-1.21-.92-.65,0-1.08.24-1.08.7,0,.54.83.59,1.72.77,1.05.22,2.21.51,2.21,1.98,0,1.26-1.08,2.02-2.64,2.02-1.82,0-2.83-.88-2.93-2.21Z"/>
      </g>
      <g>
        <path class="cls-1" d="M187.56,31.7h1.83l3.08,8.74h-1.84l-.59-1.86h-3.15l-.57,1.86h-1.8l3.04-8.74ZM187.3,37.22h2.31l-.78-2.52c-.15-.46-.35-1.34-.35-1.34h-.02s-.22.88-.37,1.34l-.78,2.52Z"/>
        <path class="cls-1" d="M193.1,31.7h3.41c2.33,0,3.84,1.88,3.84,4.46,0,1.42-.48,2.66-1.39,3.43-.65.54-1.49.84-2.59.84h-3.26v-8.74ZM196.24,38.91c1.66,0,2.31-1.01,2.31-2.75s-.76-2.94-2.26-2.94h-1.42v5.69h1.37Z"/>
        <path class="cls-1" d="M201.19,31.7h4.01c1.69,0,2.81.98,2.81,2.43,0,1.03-.48,1.81-1.6,2.11v.04c.81.23,1.22.7,1.33,1.76.12,1.23.07,2.17.38,2.31v.09h-1.7c-.22-.1-.24-1.08-.32-2.02-.07-.95-.61-1.49-1.71-1.49h-1.43v3.51h-1.77v-8.74ZM202.96,35.56h1.88c.97,0,1.44-.5,1.44-1.2s-.45-1.23-1.39-1.23h-1.93v2.43Z"/>
      </g>
      <polygon class="cls-1" points="236.2 7.66 233.6 7.66 233.6 2.62 228.56 2.62 228.56 .02 236.2 .02 236.2 7.66"/>
      <polygon class="cls-1" points="231.72 11.92 229.42 11.92 229.42 6.72 224.23 6.72 224.23 4.43 231.72 4.43 231.72 11.92"/>
    </g>
    <g>
      <path class="cls-1" d="M38.26,7.94v1.58h1.61c0,.92-.4,1.76-1.45,1.76-1.63,0-1.94-1.49-1.94-2.8s.3-2.8,1.93-2.8c.87,0,1.36.41,1.85,1.08l1.3-1.18c-.86-1.14-1.68-1.72-3.15-1.72-2.72,0-3.79,2.21-3.79,4.63s1.04,4.63,3.74,4.63c.72,0,1.33-.18,1.78-.76v.66h1.56v-5.07h-3.45ZM48.39,9.82c0-1.91-.85-3.33-2.92-3.33s-2.92,1.43-2.92,3.33.85,3.32,2.92,3.32,2.92-1.41,2.92-3.32M46.6,9.82c0,.8-.15,1.61-1.12,1.61s-1.12-.8-1.12-1.61.14-1.62,1.12-1.62,1.12.81,1.12,1.62M52.98,6.6l-1.31,3.87-1.24-3.87h-1.9l2.46,6.4h1.43l2.47-6.4h-1.92ZM60.58,9.68c0-1.88-.96-3.17-2.56-3.17-1.96,0-3,1.49-3,3.32s1.12,3.31,3.06,3.31c.98,0,1.71-.45,2.42-1.17l-1.1-1.07c-.31.32-.77.61-1.31.61-.77,0-1.19-.55-1.25-1.26h3.72v-.56h0ZM56.86,9.13c.1-.6.44-1,1.08-1s.91.43.99,1h-2.07ZM65.71,6.93c-.45-.32-.9-.49-1.41-.49-.68,0-1.19.44-1.19.44l-.06-.27h-1.43v6.4h1.76v-4.01c0-.55.33-.9.92-.9.25,0,.51.08.75.18l.65-1.36ZM72,9.41c0-1.77-.75-2.94-2.66-2.94-.42,0-.92.17-1.21.4l-.06-.26h-1.45v6.4h1.77v-3.87c0-.5.36-.92.87-.92.81,0,.96.53.96,1.23v3.57h1.77v-3.61h0ZM82.65,12.75c-.03-.09-.3-.92-.3-.96V3.96h-1.77v2.77c-.29-.18-.57-.26-.89-.26-2.01,0-2.74,1.53-2.74,3.32s.72,3.34,2.74,3.34c.44,0,.9-.09,1.28-.31l.13.38,1.55-.46ZM80.58,10.6c0,.5-.38.82-.87.82-.95,0-.98-.91-.98-1.61s.03-1.62.98-1.62c.5,0,.87.31.87.82v1.59ZM88.98,9.68c0-1.88-.96-3.17-2.56-3.17-1.96,0-3,1.49-3,3.32s1.12,3.31,3.06,3.31c.98,0,1.71-.45,2.42-1.17l-1.1-1.07c-.31.32-.77.61-1.31.61-.77,0-1.19-.55-1.25-1.26h3.72v-.56h0ZM85.27,9.13c.1-.6.44-1,1.08-1s.91.43.99,1h-2.07ZM95.89,11.53c-.3,0-.43-.08-.43-.39V3.96h-1.68v7.21c0,1.45.78,1.84,2.12,1.84v-1.48ZM102.35,9.68c0-1.88-.96-3.17-2.55-3.17-1.96,0-3,1.49-3,3.32s1.12,3.31,3.06,3.31c.98,0,1.71-.45,2.42-1.17l-1.1-1.07c-.31.32-.77.61-1.31.61-.77,0-1.19-.55-1.25-1.26h3.72v-.56ZM98.63,9.13c.1-.6.44-1,1.08-1s.91.43.99,1h-2.07ZM108.44,11.05c0-2.31-3.4-1.79-3.4-2.61,0-.38.48-.44.75-.44.38,0,.74.2.96.5l1.36-.75c-.65-.99-1.28-1.28-2.49-1.28s-2.37.61-2.37,1.97c0,2.55,3.43,1.16,3.43,2.68,0,.39-.55.44-.83.44-.66,0-.95-.22-1.11-.61l-1.54.41c.31,1.33,1.37,1.76,2.67,1.76,1.23,0,2.56-.7,2.56-2.09"/>
      <path class="cls-1" d="M36.7,18.34h-2.01v9.81h2.01v-9.81ZM40.82,26.56c-.32,0-.46-.08-.46-.42v-7.79h-1.82v7.82c0,1.57.85,2,2.3,2v-1.61ZM44.6,26.56c-.32,0-.46-.08-.46-.42v-7.79h-1.82v7.82c0,1.57.85,2,2.3,2v-1.61ZM51.6,24.55c0-2.04-1.04-3.44-2.77-3.44-2.11,0-3.24,1.61-3.24,3.6s1.21,3.58,3.32,3.58c1.06,0,1.85-.49,2.62-1.26l-1.18-1.17c-.34.35-.83.66-1.42.66-.83,0-1.28-.59-1.36-1.36h4.03v-.6h0ZM47.59,23.95c.11-.65.48-1.08,1.17-1.08s.99.46,1.07,1.08h-2.24ZM58.29,26.03c0-2.5-3.68-1.94-3.68-2.82,0-.41.52-.48.82-.48.41,0,.8.23,1.04.55l1.46-.81c-.7-1.07-1.38-1.39-2.69-1.39s-2.56.66-2.56,2.14c0,2.43,3.71,1.9,3.71,2.91,0,.42-.59.48-.9.48-.72,0-1.03-.24-1.2-.66l-1.66.45c.34,1.45,1.48,1.91,2.89,1.91,1.34,0,2.77-.76,2.77-2.27M71.87,25.16c0-.85-.32-1.69-1.04-2.16.46-.45.7-1.11.7-1.76,0-2.08-1.51-2.9-3.4-2.9h-3.61v9.81h3.83c1.99,0,3.51-.82,3.51-3M69.56,21.25c0,.91-.63,1.06-1.4,1.06h-1.62v-2.05h1.62c.75,0,1.4.11,1.4,1M69.85,25.18c0,.97-.69,1.08-1.5,1.08h-1.82v-2.18h1.82c.8,0,1.5.12,1.5,1.1M78.55,26.85v-3.53c0-1.35-1.32-2.19-2.58-2.19-1.34,0-2.41.53-2.81,1.8l1.62.56c.21-.48.65-.66,1.18-.66.44,0,.79.24.79.65v.2c0,.08-.05.17-.24.18,0,0-.59-.01-1.06,0-1.76.1-2.54.94-2.54,2.21,0,1.48,1.21,2.28,2.58,2.28.51,0,1.13-.15,1.54-.46l.14.45,1.65-.42-.28-1.06ZM76.76,26.31c-.35.28-.76.44-1.21.44-.38,0-.91-.22-.91-.69,0-.6.45-.83.97-.84h.79c.14,0,.25-.03.35-.1v1.19ZM82.49,26.56c-.32,0-.46-.08-.46-.42v-7.79h-1.82v7.82c0,1.57.85,2,2.3,2v-1.61ZM89.49,24.55c0-2.04-1.04-3.44-2.77-3.44-2.11,0-3.24,1.61-3.24,3.6s1.21,3.58,3.32,3.58c1.06,0,1.85-.49,2.62-1.26l-1.18-1.17c-.34.35-.83.66-1.42.66-.83,0-1.28-.59-1.36-1.36h4.03v-.6h0ZM85.48,23.95c.11-.65.48-1.08,1.17-1.08s.99.46,1.07,1.08h-2.24ZM96.1,26.85v-3.53c0-1.35-1.32-2.19-2.58-2.19-1.34,0-2.41.53-2.81,1.8l1.62.56c.21-.48.65-.66,1.18-.66.44,0,.79.24.79.65v.2c0,.08-.05.17-.24.18,0,0-.59-.01-1.06,0-1.76.1-2.54.94-2.54,2.21,0,1.48,1.21,2.28,2.58,2.28.51,0,1.13-.15,1.54-.46l.14.45,1.65-.42-.28-1.06ZM94.32,26.31c-.35.28-.76.44-1.21.44-.38,0-.91-.22-.91-.69,0-.6.45-.83.97-.84h.79c.14,0,.25-.03.35-.1v1.19ZM102.25,21.56c-.5-.35-.97-.54-1.52-.54-.73,0-1.28.48-1.28.48l-.07-.3h-1.55v6.94h1.91v-4.34c0-.59.35-.97,1-.97.27,0,.55.08.82.2l.7-1.47ZM108.44,26.03c0-2.5-3.68-1.94-3.68-2.82,0-.41.52-.48.82-.48.41,0,.8.23,1.04.55l1.46-.81c-.7-1.07-1.38-1.39-2.69-1.39s-2.56.66-2.56,2.14c0,2.43,3.71,1.9,3.71,2.91,0,.42-.59.48-.9.48-.72,0-1.03-.24-1.2-.66l-1.66.45c.34,1.45,1.48,1.91,2.89,1.91,1.34,0,2.78-.76,2.78-2.27"/>
      <path class="cls-1" d="M121.03,56.28c-.45.41-.89.61-1.47.61s-1.21-.3-1.21-.98.59-.99,1.18-1h.84c.23,0,.35,0,.66-.18v1.55ZM121.83,56.58v-3.07c0-.98-.98-1.61-1.91-1.61-1,0-1.76.36-2.1,1.26l.74.25c.24-.55.8-.74,1.34-.74s1.13.33,1.13.91v.45c-.2.22-.45.24-.7.25,0,0-.68,0-.85,0-1.18.04-1.91.64-1.91,1.64,0,1.13.9,1.71,1.98,1.71.58,0,1.09-.17,1.61-.59l.15.55.74-.18-.19-.83ZM116.2,51.99h-.85v5.51h.85v-5.51ZM116.39,50.02c0-.34-.27-.6-.6-.6s-.59.26-.59.6c0,.32.26.59.59.59s.6-.27.6-.59M112.75,53.79c0,.77-.43,1.14-1.21,1.14s-1.19-.36-1.19-1.14.46-1.11,1.21-1.11,1.19.34,1.19,1.11M113.57,53.81c0-.31-.05-.61-.2-.98.49-.24.63-.66.65-1.09h-.73c-.02.24-.14.42-.37.54-.4-.31-.89-.38-1.36-.38-1.26,0-2.01.63-2.01,1.9,0,.58.18,1.17.75,1.52-.4.33-.6.74-.6,1.13,0,.61.59.88,1.19.88.57,0,1.1-.24,1.68-.24.33,0,.7.18.7.59,0,.84-1.06,1.26-1.81,1.26-.55,0-1.37-.25-1.37-.8,0-.07,0-.12.02-.18l-.76-.24c-.05.14-.07.3-.07.43,0,1.13,1.23,1.56,2.25,1.56,1.22,0,2.56-.77,2.56-2.06,0-.77-.61-1.26-1.4-1.26-.64,0-1.25.3-1.9.3-.19,0-.4-.05-.4-.32,0-.33.25-.59.52-.76.24.05.41.08.63.08,1.26,0,2.04-.63,2.04-1.87M108.84,52.16c-.34-.18-.7-.27-1.07-.27-.57,0-1.18.26-1.46.76l-.02-.66h-.73v5.51h.85v-3.59c0-.7.63-1.22,1.36-1.22.25,0,.5.07.73.16l.34-.69ZM100.61,54.32c.09-.98.55-1.63,1.54-1.63s1.32.73,1.36,1.63h-2.9ZM104.31,54.5c0-1.49-.7-2.61-2.14-2.61-1.71,0-2.46,1.26-2.46,2.85s.8,2.86,2.55,2.86c.8,0,1.39-.3,1.91-.84l-.56-.52c-.33.36-.78.57-1.35.57-1.18,0-1.63-.79-1.66-1.9h3.71v-.4ZM98.6,54.37c0-1.51-.63-2.5-2.24-2.5-.5,0-1.1.2-1.46.73l-.02-.61h-.73v5.51h.85v-3.57c0-.6.57-1.21,1.32-1.21,1.14,0,1.42.7,1.42,1.67v3.11h.85v-3.12h0ZM92.81,56.61h-4.25v-2.78h3.72v-.85h-3.72v-2.52h4.25v-.89h-5.16v7.94h5.16v-.89ZM82.7,51.99h-.85v5.51h.85v-5.51ZM82.88,50.02c0-.34-.27-.6-.6-.6s-.59.26-.59.6c0,.32.26.59.59.59s.6-.27.6-.59M74.89,49.68l-.96,1.74h.7l1.24-1.74h-.97ZM76.41,54.75c0,1.02-.24,2.02-1.52,2.02s-1.52-1-1.52-2.02.23-2.03,1.52-2.03,1.52,1.01,1.52,2.03M77.29,54.75c0-1.62-.64-2.87-2.4-2.87s-2.39,1.24-2.39,2.87.63,2.86,2.39,2.86,2.4-1.23,2.4-2.86M71.15,51.99h-.85v5.51h.85v-5.51ZM71.33,50.02c0-.34-.27-.6-.6-.6s-.59.26-.59.6c0,.32.26.59.59.59s.6-.27.6-.59M68.98,52.81c-.57-.6-1.08-.92-1.96-.92-1.68,0-2.54,1.27-2.54,2.87s.85,2.84,2.54,2.84c.87,0,1.37-.3,1.96-.91l-.61-.57c-.36.4-.75.68-1.34.68-1.29,0-1.65-1.01-1.65-2.05s.36-2.06,1.65-2.06c.59,0,.98.28,1.34.68l.61-.57ZM62.53,56.28c-.45.41-.89.61-1.47.61s-1.22-.3-1.22-.98.59-.99,1.18-1h.84c.23,0,.35,0,.66-.18v1.55h0ZM63.34,56.58v-3.07c0-.98-.98-1.61-1.91-1.61-1,0-1.76.36-2.1,1.26l.74.25c.24-.55.8-.74,1.34-.74s1.13.33,1.13.91v.45c-.2.22-.45.24-.7.25,0,0-.68,0-.85,0-1.18.04-1.91.64-1.91,1.64,0,1.13.9,1.71,1.98,1.71.58,0,1.09-.17,1.61-.59l.15.55.74-.18-.19-.83ZM57.29,54.76c0,.91-.16,2.01-1.42,2.01-.71,0-1.32-.56-1.32-1.21v-1.64c0-.61.61-1.19,1.32-1.19,1.26,0,1.42,1.1,1.42,2.02M58.14,54.76c0-1.54-.53-2.9-2.26-2.9-.47,0-1.07.2-1.43.77l-.02-.65h-.73v8.01h.85v-3.06c.38.52.89.66,1.32.66,1.72,0,2.27-1.31,2.27-2.84M52.19,51.99h-.85v3.64c0,.7-.73,1.14-1.33,1.14-1.14,0-1.41-.64-1.41-1.61v-3.16h-.85v3.21c0,1.55.67,2.4,2.25,2.4.46,0,1-.18,1.44-.67l.02.58h.73v-5.51h0ZM46.64,52.81c-.57-.6-1.08-.92-1.96-.92-1.68,0-2.53,1.27-2.53,2.87s.85,2.84,2.53,2.84c.88,0,1.38-.3,1.96-.91l-.61-.57c-.36.4-.75.68-1.34.68-1.28,0-1.65-1.01-1.65-2.05s.36-2.06,1.65-2.06c.59,0,.98.28,1.34.68l.61-.57ZM40.28,53.53c0,1.47-.4,3.17-2.3,3.17s-2.29-1.71-2.29-3.17.4-3.17,2.29-3.17,2.3,1.71,2.3,3.17M41.19,53.53c0-2.09-.83-4.07-3.21-4.07s-3.2,1.98-3.2,4.07.83,4.07,3.2,4.07c2.38,0,3.21-1.98,3.21-4.07"/>
      <path class="cls-1" d="M141.59,43.3c0-.35-.27-.64-.64-.64-.32,0-.59.28-.59.64v2.06h.39l.84-1.5v-.55h0ZM138.22,42.64c-.44.41-.89.61-1.46.61s-1.22-.3-1.22-.98.59-.99,1.18-1h.84c.23,0,.35,0,.66-.18v1.55ZM139.02,42.94v-3.07c0-.98-.98-1.61-1.91-1.61-1,0-1.76.36-2.1,1.26l.74.25c.24-.55.8-.74,1.34-.74s1.12.33,1.12.91v.45c-.19.21-.45.24-.7.25,0,0-.68,0-.85,0-1.18.04-1.91.64-1.91,1.64,0,1.13.9,1.71,1.98,1.71.58,0,1.09-.17,1.61-.59l.15.56.74-.18-.19-.83ZM133.87,42.28c0-2.07-3.34-1.32-3.34-2.52,0-.63.7-.74,1.13-.74.52,0,.98.16,1.27.63l.67-.36c-.48-.77-1.08-1.03-2.01-1.03-1,0-1.92.46-1.92,1.51,0,1.96,3.36,1.17,3.36,2.56,0,.67-.74.88-1.25.88-.7,0-1.27-.23-1.47-.85l-.76.19c.26,1.06,1.17,1.43,2.24,1.43,1.03,0,2.09-.57,2.09-1.68M124.91,40.67c.09-.98.55-1.63,1.54-1.63s1.32.73,1.36,1.63h-2.9ZM128.62,40.85c0-1.49-.7-2.61-2.14-2.61-1.71,0-2.46,1.26-2.46,2.85s.8,2.85,2.55,2.85c.81,0,1.39-.3,1.91-.84l-.56-.52c-.33.36-.78.57-1.35.57-1.18,0-1.63-.78-1.66-1.9h3.71v-.4ZM123.55,38.51c-.34-.18-.69-.27-1.07-.27-.57,0-1.18.26-1.46.76l-.02-.66h-.73v5.51h.85v-3.59c0-.69.63-1.21,1.36-1.21.25,0,.5.07.73.16l.34-.69ZM118.18,41.12c0,.91-.16,2.01-1.42,2.01-.72,0-1.32-.56-1.32-1.21v-1.64c0-.61.61-1.19,1.32-1.19,1.26,0,1.42,1.1,1.42,2.02M119.04,41.12c0-1.54-.53-2.9-2.26-2.9-.47,0-1.07.2-1.43.77l-.02-.65h-.73v8.01h.85v-3.06c.37.52.89.66,1.32.66,1.72,0,2.27-1.31,2.27-2.84M113.17,40.73c0-1.43-.58-2.5-2.1-2.5-.7,0-1.25.28-1.59,1-.41-.74-.96-1-1.71-1-.43,0-.98.2-1.3.73l-.02-.61h-.73v5.51h.85v-3.68c0-.59.58-1.09,1.17-1.09,1.07,0,1.25.8,1.25,1.65v3.13h.86v-3.01c0-.79.15-1.76,1.21-1.76s1.24.8,1.24,1.65v3.13h.86v-3.12ZM104.38,42.97h-4.25v-2.78h3.72v-.85h-3.72v-2.52h4.25v-.89h-5.16v7.94h5.16v-.89ZM97.5,35.94c.02-.27-.24-.51-.52-.51s-.51.24-.52.52l-.05,1.8h.26s.77-1.25.77-1.25l.07-.56ZM93.88,41.92c0,.75-.6,1.21-1.32,1.21-1.26,0-1.41-1.11-1.41-2.04s.15-2.02,1.42-2.02c.72,0,1.31.47,1.31,1.21v1.65ZM94.94,43.76s-.2-.86-.2-.88v-6.96h-.86v2.95c-.33-.46-.89-.63-1.31-.63-1.73,0-2.28,1.31-2.28,2.85s.52,2.87,2.27,2.87c.52,0,1.09-.16,1.48-.64l.15.65.76-.21ZM85.1,42.64c-.45.41-.89.61-1.47.61s-1.22-.3-1.22-.98.59-.99,1.18-1h.84c.23,0,.35,0,.66-.18v1.55h0ZM85.91,42.94v-3.07c0-.98-.98-1.61-1.91-1.61-1,0-1.76.36-2.1,1.26l.74.25c.24-.55.8-.74,1.34-.74s1.13.33,1.13.91v.45c-.2.21-.45.24-.7.25,0,0-.68,0-.85,0-1.18.04-1.91.64-1.91,1.64,0,1.13.9,1.71,1.98,1.71.58,0,1.09-.17,1.61-.59l.15.56.74-.18-.19-.83ZM80.28,38.34h-.85v5.51h.85v-5.51ZM80.46,36.37c0-.34-.27-.6-.6-.6s-.59.26-.59.6c0,.32.26.59.59.59s.6-.27.6-.59M78.2,38.51c-.34-.18-.69-.27-1.07-.27-.57,0-1.18.26-1.46.76l-.02-.66h-.73v5.51h.85v-3.59c0-.69.63-1.21,1.36-1.21.25,0,.5.07.73.16l.34-.69ZM69.97,40.67c.09-.98.55-1.63,1.54-1.63s1.32.73,1.36,1.63h-2.9ZM73.67,40.85c0-1.49-.7-2.61-2.14-2.61-1.71,0-2.46,1.26-2.46,2.85s.8,2.85,2.55,2.85c.81,0,1.39-.3,1.91-.84l-.56-.52c-.33.36-.79.57-1.36.57-1.18,0-1.62-.78-1.66-1.9h3.71v-.4h0ZM68.2,43.11c-.46-.03-.6-.3-.6-.63v-6.56h-.82v6.56c0,.93.48,1.34,1.43,1.36v-.74ZM65.51,43.11c-.47-.03-.6-.3-.6-.63v-6.56h-.82v6.56c0,.93.48,1.34,1.43,1.36v-.74ZM59.17,40.67c.09-.98.55-1.63,1.54-1.63s1.32.73,1.36,1.63h-2.9ZM62.87,40.85c0-1.49-.7-2.61-2.14-2.61-1.72,0-2.46,1.26-2.46,2.85s.8,2.85,2.55,2.85c.8,0,1.39-.3,1.91-.84l-.56-.52c-.33.36-.79.57-1.36.57-1.18,0-1.62-.78-1.66-1.9h3.71v-.4h0ZM57.4,42.28c0-2.07-3.34-1.32-3.34-2.52,0-.63.7-.74,1.13-.74.52,0,.98.16,1.27.63l.67-.36c-.48-.77-1.08-1.03-2.01-1.03-1,0-1.92.46-1.92,1.51,0,1.96,3.36,1.17,3.36,2.56,0,.67-.74.88-1.25.88-.69,0-1.27-.23-1.47-.85l-.76.19c.26,1.06,1.17,1.43,2.24,1.43,1.03,0,2.09-.57,2.09-1.68M51.96,40.73c0-1.51-.63-2.5-2.24-2.5-.5,0-1.11.2-1.46.73l-.02-.61h-.73v5.51h.85v-3.57c0-.6.57-1.21,1.32-1.21,1.14,0,1.42.7,1.42,1.67v3.11h.85v-3.12h0ZM45.41,41.1c0,1.02-.24,2.02-1.52,2.02s-1.52-1-1.52-2.02.23-2.04,1.52-2.04,1.52,1.01,1.52,2.04M46.28,41.1c0-1.62-.64-2.87-2.4-2.87s-2.39,1.24-2.39,2.87.63,2.85,2.39,2.85,2.4-1.22,2.4-2.85M39.96,42.06c-.52.61-1.03,1-1.91,1-1.86,0-2.34-1.7-2.34-3.17s.48-3.17,2.34-3.17c.86,0,1.36.36,1.89.96l.65-.61c-.72-.83-1.4-1.24-2.54-1.24-2.36,0-3.26,1.96-3.26,4.07s.91,4.07,3.27,4.07c1.19,0,1.8-.41,2.55-1.3l-.65-.6Z"/>
      <path class="cls-1" d="M25.99,22.31c0,6.84-5.54,12.37-12.37,12.37S1.24,29.14,1.24,22.31V2.51c0-.69.55-1.24,1.24-1.24h22.27c.68,0,1.24.55,1.24,1.24v19.8h0ZM24.75.03H2.47C1.11.03,0,1.14,0,2.51v19.8c0,7.52,6.09,13.61,13.61,13.61s13.61-6.09,13.61-13.61V2.51c0-1.37-1.11-2.47-2.47-2.47"/>
      <path class="cls-1" d="M24.32,22.8c-.02.89-.15,1.76-.39,2.6l-1.02-1.12L3.4,2.73h1.76l2.26,2.51v-2.51h2.47v5.26l2.47,2.75V2.73h2.47v10.76l2.47,2.76V2.73h2.47v16.27l2.47,2.75V2.73h2.06v20.06ZM2.7,7.79c2.16,2.38,19.06,20.99,19.07,20.99l.3.33c-.26.33-.54.65-.84.95l-1.44-1.58v2.82c-.77.55-1.6.99-2.47,1.32v-6.87l-2.47-2.72v10.2c-.44.05-.88.08-1.33.08-.39,0-.76-.02-1.15-.06v-12.94l-2.47-2.72v15.1c-.87-.31-1.71-.74-2.47-1.26V14.88l-2.47-2.72v16.93c-1.39-1.8-2.17-3.98-2.23-6.29l-.02-15.02ZM24.79,2.28H2.24l.02,20.76c.13,2.86,1.33,5.53,3.39,7.54,2.11,2.06,4.91,3.2,7.86,3.2s5.75-1.14,7.86-3.2c2.06-2.01,3.25-4.68,3.39-7.54l.02-20.76Z"/>
    </g>
    <rect class="cls-1" x="159.54" y="10.81" width="1.24" height="35.91"/>
  </g>
  <rect class="cls-1" x="159.59" y="10.77" width="1.24" height="35.91"/>
  <g>
    <polygon class="cls-1" points="228.34 0 228.34 2.87 233.36 2.87 233.36 7.9 236.24 7.9 236.24 0 228.34 0"/>
    <g>
      <g>
        <polygon class="cls-1" points="233.36 54.58 181.66 54.58 181.66 2.87 226.9 2.87 226.9 0 178.78 0 178.78 57.45 236.24 57.45 236.24 9.34 233.36 9.34 233.36 54.58"/>
        <g>
          <polygon class="cls-1" points="236.24 0 236.24 7.9 233.36 7.9 233.36 2.87 228.34 2.87 228.34 0 236.24 0"/>
          <polygon class="cls-1" points="231.93 4.31 231.93 12.21 229.06 12.21 229.06 7.18 224.03 7.18 224.03 4.31 231.93 4.31"/>
        </g>
      </g>
      <g>
        <g>
          <path class="cls-1" d="M187.53,31.6h1.81l3.03,8.6h-1.82l-.58-1.83h-3.1l-.57,1.83h-1.77l3-8.6ZM187.27,37.04h2.27l-.77-2.48c-.14-.46-.35-1.32-.35-1.32h-.02s-.22.87-.36,1.32l-.77,2.48Z"/>
          <path class="cls-1" d="M192.97,31.6h3.36c2.3,0,3.78,1.85,3.78,4.39,0,1.4-.47,2.62-1.37,3.38-.64.53-1.47.83-2.55.83h-3.21v-8.6ZM196.06,38.7c1.64,0,2.27-1,2.27-2.71s-.75-2.9-2.23-2.9h-1.4v5.61h1.35Z"/>
          <path class="cls-1" d="M200.93,31.6h3.95c1.66,0,2.77.96,2.77,2.39,0,1.01-.47,1.78-1.58,2.08v.04c.79.23,1.2.69,1.31,1.73.12,1.22.07,2.14.37,2.27v.08h-1.67c-.22-.1-.24-1.06-.31-1.99-.07-.94-.6-1.47-1.68-1.47h-1.41v3.45h-1.74v-8.6ZM202.68,35.4h1.85c.95,0,1.42-.49,1.42-1.18s-.45-1.22-1.37-1.22h-1.9v2.39Z"/>
        </g>
        <g>
          <path class="cls-1" d="M184.53,43.09h3.85c.93,0,1.64.23,2.08.63.47.42.69.94.69,1.61,0,.88-.54,1.44-1.35,1.72v.04c.95.28,1.6,1.07,1.6,2.13,0,.81-.25,1.36-.76,1.79-.49.43-1.25.69-2.17.69h-3.95v-8.6ZM188.16,46.55c.76,0,1.28-.36,1.28-1.03,0-.64-.47-1.01-1.24-1.01h-1.93v2.05h1.89ZM186.27,50.25h2.01c.84,0,1.35-.47,1.35-1.17,0-.82-.6-1.24-1.4-1.24h-1.96v2.41Z"/>
          <path class="cls-1" d="M195.87,51.01h-.02c-.31.47-.76.83-1.82.83-1.26,0-2.15-.66-2.15-1.89,0-1.36,1.11-1.79,2.48-1.99,1.02-.14,1.49-.23,1.49-.7,0-.45-.35-.73-1.03-.73-.77,0-1.14.28-1.19.87h-1.46c.05-1.08.85-2.03,2.66-2.03s2.6.83,2.6,2.27v3.14c0,.47.07.75.22.85v.06h-1.58c-.1-.12-.16-.41-.19-.69ZM195.88,49.52v-.93c-.29.17-.73.26-1.14.36-.85.19-1.28.38-1.28.96s.39.78.96.78c.94,0,1.46-.58,1.46-1.18Z"/>
          <path class="cls-1" d="M198.36,43.09h1.64v8.6h-1.64v-8.6Z"/>
          <path class="cls-1" d="M200.65,48.6c0-1.83,1.24-3.25,3.04-3.25,1.99,0,3.04,1.52,3.04,3.72h-4.48c.12.95.65,1.54,1.58,1.54.64,0,1.01-.29,1.19-.76h1.61c-.23,1.1-1.2,2.02-2.79,2.02-2.05,0-3.2-1.43-3.2-3.27ZM202.29,47.94h2.74c-.05-.78-.57-1.32-1.31-1.32-.87,0-1.29.52-1.43,1.32Z"/>
          <path class="cls-1" d="M211.08,51.01h-.02c-.31.47-.76.83-1.82.83-1.26,0-2.15-.66-2.15-1.89,0-1.36,1.11-1.79,2.48-1.99,1.02-.14,1.49-.23,1.49-.7,0-.45-.35-.73-1.03-.73-.77,0-1.14.28-1.19.87h-1.46c.05-1.08.85-2.03,2.66-2.03s2.6.83,2.6,2.27v3.14c0,.47.07.75.22.85v.06h-1.58c-.1-.12-.16-.41-.19-.69ZM211.09,49.52v-.93c-.29.17-.73.26-1.14.36-.85.19-1.28.38-1.28.96s.39.78.96.78c.94,0,1.46-.58,1.46-1.18Z"/>
          <path class="cls-1" d="M215.12,46.51h.04c.37-.7.79-1.06,1.52-1.06.18,0,.29.01.39.05v1.43h-.04c-1.07-.11-1.84.46-1.84,1.76v3.01h-1.64v-6.17h1.58v.99Z"/>
          <path class="cls-1" d="M217.26,49.7h1.52c.11.71.61,1.02,1.35,1.02s1.13-.28,1.13-.71c0-.59-.78-.65-1.62-.82-1.11-.22-2.19-.52-2.19-1.87s1.11-1.97,2.52-1.97c1.62,0,2.53.81,2.65,2.05h-1.48c-.07-.66-.49-.9-1.19-.9-.64,0-1.06.24-1.06.69,0,.53.82.58,1.7.76,1.03.22,2.18.51,2.18,1.95,0,1.24-1.06,1.99-2.6,1.99-1.79,0-2.79-.87-2.89-2.18Z"/>
        </g>
      </g>
    </g>
    <g>
      <path class="cls-1" d="M244.98,20.11h1.81l3.03,8.6h-1.82l-.58-1.83h-3.1l-.57,1.83h-1.77l3-8.6ZM244.72,25.55h2.27l-.77-2.48c-.14-.46-.35-1.32-.35-1.32h-.02s-.22.87-.36,1.32l-.77,2.48Z"/>
      <path class="cls-1" d="M249.88,28.89h1.62c.13.38.48.69,1.24.69.93,0,1.37-.45,1.37-1.29v-.67h-.04c-.36.41-.83.72-1.61.72-1.37,0-2.72-1.08-2.72-2.95s1.11-3.02,2.67-3.02c.77,0,1.34.3,1.71.82h.02v-.65h1.58v5.7c0,.87-.28,1.46-.73,1.88-.52.48-1.31.7-2.23.7-1.68,0-2.72-.72-2.89-1.93ZM254.2,25.36c0-.9-.48-1.67-1.47-1.67-.83,0-1.38.65-1.38,1.68s.55,1.66,1.4,1.66c1.04,0,1.46-.76,1.46-1.67Z"/>
      <path class="cls-1" d="M256.36,25.62c0-1.83,1.24-3.25,3.04-3.25,1.99,0,3.04,1.52,3.04,3.72h-4.48c.12.95.65,1.54,1.58,1.54.64,0,1.01-.29,1.19-.76h1.61c-.23,1.1-1.2,2.02-2.79,2.02-2.05,0-3.2-1.43-3.2-3.27ZM257.53,20.07h1.91l.66,1.7h-1.28l-1.3-1.7ZM258,24.96h2.74c-.05-.78-.57-1.32-1.31-1.32-.87,0-1.29.52-1.43,1.32Z"/>
      <path class="cls-1" d="M264.69,23.38h.04c.42-.66.99-1.01,1.83-1.01,1.28,0,2.13.96,2.13,2.31v4.03h-1.64v-3.79c0-.66-.38-1.13-1.07-1.13-.72,0-1.25.58-1.25,1.42v3.5h-1.64v-6.17h1.6v.84Z"/>
      <path class="cls-1" d="M269.27,25.63c0-1.84,1.2-3.26,3.08-3.26,1.6,0,2.59.93,2.8,2.26h-1.6c-.11-.54-.53-.95-1.13-.95-.99,0-1.49.76-1.49,1.95s.47,1.95,1.47,1.95c.66,0,1.13-.35,1.24-1.05h1.58c-.11,1.31-1.13,2.36-2.78,2.36-1.95,0-3.16-1.42-3.16-3.26Z"/>
      <path class="cls-1" d="M275.81,20.11h1.64v1.47h-1.64v-1.47ZM275.81,22.54h1.64v6.17h-1.64v-6.17Z"/>
      <path class="cls-1" d="M282.08,28.03h-.02c-.31.47-.76.83-1.82.83-1.26,0-2.15-.66-2.15-1.89,0-1.36,1.11-1.79,2.48-1.99,1.02-.14,1.49-.23,1.49-.7,0-.45-.35-.73-1.03-.73-.77,0-1.14.28-1.19.87h-1.46c.05-1.08.85-2.03,2.66-2.03s2.6.83,2.6,2.27v3.14c0,.47.07.75.22.85v.06h-1.58c-.1-.12-.16-.41-.19-.69ZM282.09,26.53v-.93c-.29.17-.73.26-1.14.36-.85.19-1.28.38-1.28.96s.38.78.96.78c.94,0,1.46-.58,1.46-1.18Z"/>
    </g>
    <g>
      <path class="cls-1" d="M241.98,31.6h3.36c2.3,0,3.78,1.85,3.78,4.39,0,1.4-.47,2.62-1.37,3.38-.64.53-1.47.83-2.55.83h-3.21v-8.6ZM245.07,38.7c1.64,0,2.27-1,2.27-2.71s-.75-2.9-2.23-2.9h-1.4v5.61h1.35Z"/>
      <path class="cls-1" d="M249.51,37.11c0-1.83,1.24-3.25,3.04-3.25,1.99,0,3.04,1.52,3.04,3.72h-4.48c.12.95.65,1.54,1.58,1.54.64,0,1.01-.29,1.19-.76h1.61c-.23,1.1-1.2,2.02-2.79,2.02-2.05,0-3.2-1.43-3.2-3.27ZM251.15,36.45h2.74c-.05-.78-.57-1.32-1.31-1.32-.87,0-1.29.52-1.43,1.32Z"/>
      <path class="cls-1" d="M255.86,38.21h1.52c.11.71.61,1.02,1.35,1.02s1.13-.28,1.13-.71c0-.59-.78-.65-1.62-.82-1.11-.22-2.19-.52-2.19-1.87s1.11-1.97,2.52-1.97c1.62,0,2.53.81,2.65,2.05h-1.48c-.07-.66-.49-.9-1.19-.9-.64,0-1.06.24-1.06.69,0,.53.82.58,1.7.76,1.03.22,2.18.51,2.18,1.95,0,1.24-1.06,1.99-2.6,1.99-1.79,0-2.79-.87-2.89-2.18Z"/>
      <path class="cls-1" d="M261.72,37.11c0-1.83,1.24-3.25,3.04-3.25,1.99,0,3.04,1.52,3.04,3.72h-4.48c.12.95.65,1.54,1.58,1.54.64,0,1.01-.29,1.19-.76h1.61c-.23,1.1-1.2,2.02-2.79,2.02-2.05,0-3.2-1.43-3.2-3.27ZM263.35,36.45h2.74c-.05-.78-.57-1.32-1.31-1.32-.87,0-1.29.52-1.43,1.32Z"/>
      <path class="cls-1" d="M270.04,34.87h.04c.42-.66.99-1.01,1.83-1.01,1.28,0,2.13.96,2.13,2.31v4.03h-1.64v-3.79c0-.66-.39-1.13-1.07-1.13-.72,0-1.25.58-1.25,1.42v3.5h-1.64v-6.17h1.6v.84Z"/>
      <path class="cls-1" d="M274.3,34.03h1.66l.99,3.2c.18.59.28.99.28.99h.02s.08-.4.26-.99l1.01-3.2h1.64l-2.15,6.17h-1.56l-2.14-6.17Z"/>
      <path class="cls-1" d="M280.12,37.12c0-1.84,1.31-3.26,3.23-3.26s3.23,1.42,3.23,3.26-1.31,3.26-3.23,3.26-3.23-1.42-3.23-3.26ZM284.9,37.12c0-1.2-.57-2.02-1.56-2.02s-1.56.82-1.56,2.02.55,2.01,1.56,2.01,1.56-.81,1.56-2.01Z"/>
      <path class="cls-1" d="M287.23,31.6h1.64v8.6h-1.64v-8.6Z"/>
      <path class="cls-1" d="M293.73,40.2v-.72h-.04c-.42.57-.9.89-1.77.89-1.37,0-2.14-.88-2.14-2.23v-4.12h1.62v3.84c0,.72.32,1.12,1.02,1.12.77,0,1.24-.58,1.24-1.4v-3.56h1.64v6.17h-1.58Z"/>
      <path class="cls-1" d="M296.24,34.03h1.58v.77h.04c.4-.54.97-.94,1.82-.94,1.64,0,2.68,1.34,2.68,3.26s-1.08,3.26-2.67,3.26c-.87,0-1.43-.35-1.78-.88h-.02v2.72h-1.64v-8.2ZM300.69,37.17c0-1.17-.41-1.99-1.42-1.99s-1.43.88-1.43,1.99.52,1.85,1.49,1.85c.83,0,1.36-.69,1.36-1.85Z"/>
      <path class="cls-1" d="M306.69,39.52h-.02c-.31.47-.76.83-1.82.83-1.26,0-2.15-.66-2.15-1.89,0-1.36,1.11-1.79,2.48-1.99,1.02-.14,1.49-.23,1.49-.7,0-.45-.35-.73-1.03-.73-.77,0-1.14.28-1.19.87h-1.46c.05-1.08.85-2.03,2.66-2.03s2.6.83,2.6,2.27v3.14c0,.47.07.75.22.85v.06h-1.58c-.1-.12-.16-.41-.19-.69ZM306.7,38.03v-.93c-.29.17-.73.26-1.14.36-.85.19-1.28.38-1.28.96s.39.78.96.78c.94,0,1.46-.58,1.46-1.18Z"/>
      <path class="cls-1" d="M309.15,34.03h1.58v.83h.04c.34-.57.94-1,1.79-1,.78,0,1.41.43,1.71,1.08h.02c.42-.67,1.07-1.08,1.85-1.08,1.3,0,2.03.84,2.03,2.19v4.15h-1.64v-3.87c0-.7-.35-1.06-.95-1.06-.69,0-1.11.53-1.11,1.35v3.59h-1.64v-3.87c0-.7-.35-1.06-.95-1.06-.66,0-1.11.53-1.11,1.35v3.59h-1.64v-6.17Z"/>
      <path class="cls-1" d="M318.77,37.11c0-1.83,1.24-3.25,3.04-3.25,1.99,0,3.04,1.52,3.04,3.72h-4.48c.12.95.65,1.54,1.58,1.54.64,0,1.01-.29,1.19-.76h1.61c-.23,1.1-1.2,2.02-2.79,2.02-2.05,0-3.2-1.43-3.2-3.27ZM320.4,36.45h2.74c-.05-.78-.57-1.32-1.31-1.32-.87,0-1.29.52-1.43,1.32Z"/>
      <path class="cls-1" d="M327.1,34.87h.04c.42-.66.99-1.01,1.83-1.01,1.28,0,2.13.96,2.13,2.31v4.03h-1.64v-3.79c0-.66-.38-1.13-1.07-1.13-.72,0-1.25.58-1.25,1.42v3.5h-1.64v-6.17h1.6v.84Z"/>
      <path class="cls-1" d="M331.5,34.03h.85v-1.93h1.6v1.93h1.06v1.08h-1.06v3.27c0,.46.25.61.61.61.2,0,.48-.01.48-.01v1.2s-.37.02-1.02.02c-.79,0-1.67-.31-1.67-1.48v-3.62h-.85v-1.08Z"/>
    </g>
    <g>
      <g>
        <path class="cls-1" d="M241.98,43.09h3.95c1.66,0,2.77.96,2.77,2.39,0,1.01-.47,1.78-1.58,2.08v.04c.79.23,1.2.69,1.31,1.73.12,1.22.07,2.14.37,2.27v.08h-1.67c-.22-.1-.24-1.06-.31-1.99-.07-.94-.6-1.47-1.68-1.47h-1.41v3.45h-1.74v-8.6ZM243.73,46.89h1.85c.95,0,1.42-.49,1.42-1.18s-.45-1.22-1.37-1.22h-1.9v2.39Z"/>
        <path class="cls-1" d="M249.2,48.6c0-1.83,1.24-3.25,3.04-3.25,1.99,0,3.04,1.52,3.04,3.72h-4.48c.12.95.65,1.54,1.58,1.54.64,0,1.01-.29,1.19-.76h1.61c-.23,1.1-1.2,2.02-2.79,2.02-2.05,0-3.2-1.43-3.2-3.27ZM250.84,47.94h2.74c-.05-.78-.57-1.32-1.31-1.32-.87,0-1.29.52-1.43,1.32Z"/>
        <path class="cls-1" d="M255.76,51.87h1.62c.13.38.48.69,1.24.69.93,0,1.37-.45,1.37-1.29v-.67h-.04c-.36.41-.83.72-1.61.72-1.37,0-2.72-1.08-2.72-2.95s1.11-3.02,2.67-3.02c.77,0,1.34.3,1.71.82h.02v-.65h1.58v5.7c0,.87-.28,1.46-.73,1.88-.52.48-1.31.7-2.23.7-1.68,0-2.72-.72-2.89-1.93ZM260.08,48.34c0-.9-.48-1.67-1.47-1.67-.83,0-1.38.65-1.38,1.68s.55,1.66,1.4,1.66c1.03,0,1.46-.76,1.46-1.67Z"/>
        <path class="cls-1" d="M262.55,43.09h1.64v1.47h-1.64v-1.47ZM262.55,45.52h1.64v6.17h-1.64v-6.17Z"/>
        <path class="cls-1" d="M264.82,48.61c0-1.84,1.31-3.26,3.23-3.26s3.22,1.42,3.22,3.26-1.31,3.26-3.22,3.26-3.23-1.42-3.23-3.26ZM269.61,48.61c0-1.2-.57-2.02-1.56-2.02s-1.56.82-1.56,2.02.55,2.01,1.56,2.01,1.56-.81,1.56-2.01Z"/>
        <path class="cls-1" d="M273.51,46.36h.04c.42-.66.99-1.01,1.83-1.01,1.28,0,2.13.96,2.13,2.31v4.03h-1.64v-3.79c0-.66-.38-1.13-1.07-1.13-.72,0-1.25.58-1.25,1.42v3.5h-1.64v-6.17h1.6v.84Z"/>
        <path class="cls-1" d="M282.09,51.01h-.02c-.31.47-.76.83-1.82.83-1.26,0-2.15-.66-2.15-1.89,0-1.36,1.11-1.79,2.48-1.99,1.02-.14,1.49-.23,1.49-.7,0-.45-.35-.73-1.03-.73-.77,0-1.14.28-1.19.87h-1.46c.05-1.08.85-2.03,2.66-2.03s2.6.83,2.6,2.27v3.14c0,.47.07.75.22.85v.06h-1.58c-.1-.12-.16-.41-.19-.69ZM282.1,49.52v-.93c-.29.17-.73.26-1.14.36-.85.19-1.28.38-1.28.96s.39.78.96.78c.94,0,1.46-.58,1.46-1.18Z"/>
        <path class="cls-1" d="M284.58,43.09h1.64v8.6h-1.64v-8.6Z"/>
      </g>
      <g>
        <path class="cls-1" d="M289.21,43.09h3.85c.93,0,1.64.23,2.08.63.47.42.69.94.69,1.61,0,.88-.54,1.44-1.35,1.72v.04c.95.28,1.6,1.07,1.6,2.13,0,.81-.25,1.36-.76,1.79-.49.43-1.25.69-2.17.69h-3.95v-8.6ZM292.85,46.55c.76,0,1.28-.36,1.28-1.03,0-.64-.47-1.01-1.24-1.01h-1.93v2.05h1.89ZM290.96,50.25h2.01c.84,0,1.35-.47,1.35-1.17,0-.82-.6-1.24-1.4-1.24h-1.96v2.41Z"/>
        <path class="cls-1" d="M300.55,51.01h-.02c-.31.47-.76.83-1.82.83-1.26,0-2.15-.66-2.15-1.89,0-1.36,1.11-1.79,2.48-1.99,1.02-.14,1.49-.23,1.49-.7,0-.45-.35-.73-1.03-.73-.77,0-1.14.28-1.19.87h-1.46c.05-1.08.85-2.03,2.66-2.03s2.6.83,2.6,2.27v3.14c0,.47.07.75.22.85v.06h-1.58c-.1-.12-.16-.41-.19-.69ZM300.56,49.52v-.93c-.29.17-.73.26-1.14.36-.85.19-1.28.38-1.28.96s.39.78.96.78c.94,0,1.46-.58,1.46-1.18Z"/>
        <path class="cls-1" d="M303.04,43.09h1.64v8.6h-1.64v-8.6Z"/>
        <path class="cls-1" d="M305.34,48.6c0-1.83,1.24-3.25,3.04-3.25,1.99,0,3.04,1.52,3.04,3.72h-4.48c.12.95.65,1.54,1.58,1.54.64,0,1.01-.29,1.19-.76h1.61c-.23,1.1-1.2,2.02-2.79,2.02-2.05,0-3.2-1.43-3.2-3.27ZM306.98,47.94h2.74c-.05-.78-.57-1.32-1.31-1.32-.87,0-1.29.52-1.43,1.32Z"/>
        <path class="cls-1" d="M315.76,51.01h-.02c-.31.47-.76.83-1.82.83-1.26,0-2.15-.66-2.15-1.89,0-1.36,1.11-1.79,2.48-1.99,1.02-.14,1.49-.23,1.49-.7,0-.45-.35-.73-1.03-.73-.77,0-1.14.28-1.19.87h-1.46c.05-1.08.85-2.03,2.66-2.03s2.6.83,2.6,2.27v3.14c0,.47.07.75.22.85v.06h-1.58c-.1-.12-.16-.41-.19-.69ZM315.77,49.52v-.93c-.29.17-.73.26-1.14.36-.85.19-1.28.38-1.28.96s.39.78.96.78c.94,0,1.46-.58,1.46-1.18Z"/>
        <path class="cls-1" d="M319.8,46.51h.04c.37-.7.79-1.06,1.52-1.06.18,0,.29.01.39.05v1.43h-.04c-1.07-.11-1.84.46-1.84,1.76v3.01h-1.64v-6.17h1.58v.99Z"/>
        <path class="cls-1" d="M321.94,49.7h1.52c.11.71.61,1.02,1.35,1.02s1.13-.28,1.13-.71c0-.59-.78-.65-1.62-.82-1.11-.22-2.19-.52-2.19-1.87s1.11-1.97,2.52-1.97c1.62,0,2.53.81,2.65,2.05h-1.48c-.07-.66-.49-.9-1.19-.9-.64,0-1.06.24-1.06.69,0,.53.82.58,1.7.76,1.03.22,2.18.51,2.18,1.95,0,1.24-1.06,1.99-2.6,1.99-1.79,0-2.79-.87-2.89-2.18Z"/>
      </g>
    </g>
  </g>
</svg>